# xmcd CD database file generated by Grip 2.95
# 
# Track frame offsets:
#       150
#       28135
#       41762
#       58382
#       80369
#       98729
# 
# Disc length: 1531 seconds
# 
# Revision: 3
# Processed by: cddbd v1.4b41PL1 Copyright (c) Steve Scherf et al.
# Submitted via: Grip 2.95
# 
DISCID=4b05f906
DTITLE=Kilborn Ally - Kilborn Ally
DYEAR=1900
DGENRE=
TTITLE0=Help Me
TTITLE1=Break On Down The House
TTITLE2=Sweet Little Angel \ Jelly, Jelly
TTITLE3=Catching the Blues
TTITLE4=Little Darlin'
TTITLE5=West Side Park
EXTD=
EXTT0=
EXTT1=
EXTT2=
EXTT3=
EXTT4=
EXTT5=
PLAYORDER=
